<svg xmlns="http://www.w3.org/2000/svg" viewBox="0 0 448 448" fill="white">
	<g transform="translate(0.000000,448.000000) scale(0.100000,-0.100000)">
		<path d="M2020 4469 c-847 -93 -1554 -628 -1864 -1409 -103 -261 -150 -519
		-150 -820 0 -233 14 -352 70 -569 175 -682 680 -1252 1344 -1515 261 -103 519
		-150 820 -150 233 0 352 14 569 70 773 198 1397 822 1595 1595 56 217 70 336
		70 569 0 233 -14 352 -70 569 -220 859 -944 1508 -1834 1646 -126 19 -432 27
		-550 14z m346 -311 c4 -13 30 -49 59 -80 52 -56 95 -129 95 -161 0 -30 -49
		-116 -89 -156 -55 -55 -129 -86 -272 -115 -68 -14 -157 -37 -198 -51 -93 -33
		-260 -58 -280 -42 -11 9 -12 34 -7 122 3 60 8 130 11 155 9 69 0 75 -107 74
		-114 0 -189 -27 -208 -75 -19 -45 -7 -122 30 -191 31 -60 32 -66 26 -143 -13
		-157 -24 -196 -71 -241 -50 -48 -158 -105 -256 -134 -61 -19 -73 -27 -121 -82
		-29 -34 -105 -116 -169 -182 -156 -163 -205 -225 -224 -288 -45 -153 15 -262
		182 -332 215 -89 373 -191 457 -295 90 -112 116 -133 249 -201 66 -34 129 -67
		139 -74 27 -16 56 -87 70 -164 33 -193 -69 -384 -282 -530 -96 -66 -113 -81
		-144 -127 -18 -26 -26 -51 -26 -81 0 -38 21 -158 36 -207 4 -14 -8 -9 -55 20
		-33 20 -62 46 -65 58 -3 11 -26 45 -51 75 -60 72 -155 203 -188 260 -15 27
		-41 107 -62 198 l-37 152 -84 100 c-100 120 -125 167 -153 285 -12 49 -33 125
		-46 169 -14 45 -31 115 -39 156 -8 41 -24 101 -36 132 -30 79 -95 174 -124
		182 -22 5 -24 10 -19 48 23 213 81 487 108 518 7 8 23 38 34 67 139 354 438
		704 781 916 175 108 412 201 625 246 128 28 229 38 382 40 118 1 122 0 129
		-21z m746 -384 c18 -9 63 -27 100 -40 38 -13 95 -39 126 -58 79 -47 141 -66
		220 -66 l67 0 56 -63 c241 -270 406 -595 469 -922 6 -33 14 -68 17 -78 5 -17
		3 -18 -26 -3 -64 34 -87 16 -116 -92 -13 -46 -27 -70 -52 -92 -18 -17 -40 -30
		-48 -30 -8 0 -22 -11 -30 -24 -15 -22 -15 -27 -1 -58 9 -18 31 -55 51 -82 54
		-75 49 -108 -35 -206 -55 -64 -111 -150 -135 -206 -9 -21 -28 -93 -41 -159
		-17 -77 -41 -154 -69 -215 -41 -91 -50 -118 -95 -277 -25 -89 -70 -148 -171
		-225 -133 -102 -262 -148 -315 -113 -31 20 -67 95 -89 185 -9 36 -34 105 -57
		153 l-41 89 11 93 c18 140 15 178 -23 323 -39 152 -65 206 -114 239 -49 33
		-77 38 -141 25 -86 -18 -134 -15 -212 16 -134 51 -217 156 -263 334 -16 61
		-17 81 -5 210 15 170 28 210 107 320 125 174 167 207 290 227 40 6 109 23 155
		38 49 15 108 26 144 27 76 1 121 -26 188 -113 82 -106 131 -125 226 -87 l46
		19 82 -37 c96 -42 151 -47 182 -16 29 29 42 68 35 102 -8 34 -24 43 -90 53
		-27 4 -62 13 -77 21 -15 8 -53 14 -85 14 -32 0 -66 6 -75 13 -9 7 -41 53 -71
		103 -62 100 -97 125 -151 104 l-29 -11 29 -30 c16 -17 48 -42 71 -55 22 -14
		44 -32 47 -41 10 -24 -21 -63 -49 -63 -22 0 -25 3 -19 25 9 35 -7 50 -95 95
		-42 21 -91 50 -110 64 -79 59 -129 43 -218 -69 -71 -89 -84 -98 -147 -97 -71
		0 -133 27 -153 66 -40 77 -5 204 69 253 33 22 55 28 138 33 l98 7 61 53 c34
		29 61 59 61 67 0 7 -7 30 -15 50 -35 83 -11 123 97 161 34 13 79 32 98 42 43
		24 82 25 122 4z"/>
	</g>
</svg>
