<svg xmlns="http://www.w3.org/2000/svg" viewBox="-6 0 70 70" fill="white">
  <g transform="translate(9.250437, 57.779491)">
    <path d="M8.04166936,8.77987509 C8.04166936,10.1293993 8.4257277,10.8039969 9.19433992,10.8039969 C9.9682381,10.8039969 10.3547742,10.1293993 10.3547742,8.77987509 C10.3547742,7.43051545 9.9682381,6.75591794 9.19433992,6.75591794 C8.4257277,6.75591794 8.04166936,7.43051545 8.04166936,8.77987509 M9.19433992,12.0170542 C7.59830912,12.0170542 6.8006241,10.9379945 6.8006241,8.77987509 C6.8006241,6.62224952 7.59830912,5.54286058 9.19433992,5.54286058 C10.7903707,5.54286058 11.5880557,6.62224952 11.5880557,8.77987509 C11.5880557,10.9379945 10.7903707,12.0170542 9.19433992,12.0170542 M1.66646626,11.8160577 C1.64994763,11.7895545 1.64994763,11.7600882 1.66646626,11.7276588 L8.67053391,0.305922893 C8.69184295,0.284687393 8.71315199,0.273987335 8.7349566,0.273987335 L9.88762715,0.273987335 C9.91983849,0.273987335 9.94263421,0.288473567 9.95617949,0.318104498 C9.96922922,0.347406195 9.9682381,0.378518672 9.95188465,0.41045423 L2.92353461,11.8242886 C2.90222556,11.8456887 2.88042096,11.8562241 2.85894673,11.8562241 L1.7388179,11.8562241 C1.70660655,11.8562241 1.68248934,11.8430548 1.66646626,11.8160577 M1.25515218,3.35050097 C1.25515218,4.69953138 1.64218387,5.37445813 2.41575168,5.37445813 C3.18419871,5.37445813 3.56825704,4.69953138 3.56825704,3.35050097 C3.56825704,2.0008121 3.18419871,1.32604997 2.41575168,1.32604997 C1.64218387,1.32604997 1.25515218,2.0008121 1.25515218,3.35050097 M0.0218706765,3.35050097 C0.0218706765,1.19221694 0.820051259,0.113321847 2.41575168,0.113321847 C4.00633132,0.113321847 4.80153855,1.19221694 4.80153855,3.35050097 C4.80153855,5.5137235 4.00633132,6.59525245 2.41575168,6.59525245 C0.820051259,6.59525245 0.0218706765,5.5137235 0.0218706765,3.35050097"></path>
  </g>
  <path d="M8.34582704,46.6099306 L8.34582704,44.8788259 C8.34582704,44.8251609 8.37506503,44.7983285 8.43453213,44.7983285 L10.1714669,44.7983285 C10.2253177,44.7983285 10.252243,44.8251609 10.252243,44.8788259 L10.252243,46.6099306 C10.252243,46.6688633 10.2253177,46.698165 10.1714669,46.698165 L8.43453213,46.698165 C8.37506503,46.698165 8.34582704,46.6688633 8.34582704,46.6099306 M1.89893305,49.2182756 L1.89893305,48.1474467 C1.89893305,48.0939464 1.92569325,48.0669493 1.97970919,48.0669493 L3.78139703,48.0669493 C3.83491741,48.0669493 3.86217317,48.0376476 3.86217317,47.9783858 L3.86217317,46.7467268 C3.86217317,45.4158042 4.6403662,44.7660637 6.19675226,44.7983285 L7.30350099,44.7983285 C7.3628029,44.7983285 7.39253645,44.8251609 7.39253645,44.8788259 L7.39253645,46.1187157 C7.39253645,46.1723806 7.3628029,46.199213 7.30350099,46.199213 L6.21277534,46.199213 C5.97044692,46.199213 5.78064777,46.2727965 5.64337789,46.4207865 C5.50610801,46.5681181 5.43755566,46.7709254 5.43755566,47.0283852 L5.43755566,47.9783858 C5.43755566,48.0376476 5.46431585,48.0669493 5.5183318,48.0669493 L10.0019857,48.0669493 C10.0556713,48.0669493 10.0827618,48.0939464 10.0827618,48.1474467 L10.0827618,56.327065 C10.0827618,56.3808945 10.0556713,56.407727 10.0019857,56.407727 L8.59608441,56.407727 C8.54206846,56.407727 8.51530827,56.3808945 8.51530827,56.327065 L8.51530827,49.3873365 C8.51530827,49.3284039 8.48838289,49.2987729 8.43453213,49.2987729 L5.5183318,49.2987729 C5.46431585,49.2987729 5.43755566,49.3284039 5.43755566,49.3873365 L5.43755566,56.327065 C5.43755566,56.3808945 5.41029991,56.407727 5.35661433,56.407727 L3.95087825,56.407727 C3.89141115,56.407727 3.86217317,56.3808945 3.86217317,56.327065 L3.86217317,49.3873365 C3.86217317,49.3284039 3.83491741,49.2987729 3.78139703,49.2987729 L1.97970919,49.2987729 C1.92569325,49.2987729 1.89893305,49.2719405 1.89893305,49.2182756"></path>
  <path d="M56.6707387,50.6070114 C56.6707387,47.4152664 54.0745044,44.8279923 50.8717057,44.8279923 C47.668907,44.8279923 45.0726727,47.4152664 45.0726727,50.6070114 C45.0726727,53.7987565 47.668907,56.3860305 50.8717057,56.3860305 C54.0745044,56.3860305 56.6707387,53.7987565 56.6707387,50.6070114"></path>
  <path d="M28.9971969,57.5268378 C25.7805225,57.5268378 23.1727251,60.1254704 23.1727251,63.3313724 C23.1727251,66.5367806 25.7805225,69.1355778 28.9971969,69.1355778 C32.2140364,69.1355778 34.8216686,66.5367806 34.8216686,63.3313724 C34.8216686,60.1254704 32.2140364,57.5268378 28.9971969,57.5268378 M28.9971969,58.9855027 C31.4016498,58.9855027 33.3577869,60.9350533 33.3577869,63.3313724 C33.3577869,65.7271978 31.4016498,67.6767483 28.9971969,67.6767483 C26.5927439,67.6767483 24.6366068,65.7271978 24.6366068,63.3313724 C24.6366068,60.9350533 26.5927439,58.9855027 28.9971969,58.9855027"></path>
  <g transform="translate(0.000000, 0.163793)">
    <path d="M4.61316,31.4466149 C5.68059438,32.4048462 6.69500393,33.2132768 7.65655384,33.8733881 C8.61711263,34.5333347 9.87698914,35.1402749 11.4371745,35.6928918 C12.9953776,36.2463317 14.3948366,36.6924418 15.6352211,37.0294114 C16.8757708,37.3673686 18.3721942,37.6602209 20.1266388,37.9101085 C21.8791011,38.1591729 23.2785601,38.3580293 24.3255113,38.5068425 C25.3726278,38.656314 26.781998,38.8550059 28.5537871,39.1058811 C28.799254,39.1419321 29.3750937,39.2237464 30.2816366,39.3511594 C31.1875187,39.4790662 31.8568539,39.5738852 32.289477,39.6354517 C32.7221001,39.6970182 33.400851,39.7929895 34.3280421,39.9250117 C35.254077,40.0571986 35.9992327,40.1846116 36.5653264,40.310543 C37.1294379,40.4351576 37.8392438,40.6262771 38.6949092,40.8814323 C39.5494184,41.1374106 40.2222225,41.4022782 40.7139823,41.6785043 C41.2057422,41.954895 41.7497009,42.3068446 42.3483364,42.7318839 C42.6813521,42.9682729 42.9676201,43.2115757 43.2079663,43.461134 L56.9521337,43.461134 C56.8323736,42.8510661 56.6848622,42.2640444 56.5099298,41.7005629 C54.843034,36.3429615 50.4214902,32.6432106 43.2434813,30.6021334 C40.5938918,29.8560924 35.6584532,29.0264263 28.4365047,28.114946 C28.0116454,28.049758 27.2955624,27.9396297 26.289247,27.7830796 C25.2819405,27.6273526 24.3539234,27.4829841 23.5061869,27.3519495 C22.6577896,27.2199273 21.933117,27.1081528 21.3324993,27.0139923 C20.7305602,26.9208195 20.046193,26.7555448 19.2790674,26.5153696 C18.5127678,26.2768406 17.6394275,25.9406942 16.6603678,25.5061072 C15.6811429,25.0721787 14.9270671,24.5944623 14.3992966,24.0736163 C13.8695439,23.5527704 13.4200718,22.9122485 13.0492284,22.1520505 C12.6793761,21.3920172 12.4938718,20.5560957 12.4938718,19.643463 C12.4938718,17.343609 13.6998975,15.3463197 16.1137661,13.6517597 C18.5268087,11.9581874 22.0406533,11.1107428 26.6529874,11.1107428 C31.8639569,11.1107428 35.9004513,12.1868394 38.7628008,14.3354111 C41.6233333,16.4849705 43.0553341,19.3901186 43.0553341,23.0511846 C43.0553341,23.4772116 43.2680941,23.6892373 43.6965876,23.6892373 L54.9727054,23.6892373 C55.3134849,23.6892373 55.4849483,23.4772116 55.4849483,23.0511846 C55.4849483,18.0703899 54.1923649,13.8145652 51.6090151,10.2812414 C49.0238483,6.74857605 45.5963961,4.1512604 41.3258327,2.49176369 C37.0536174,0.831443902 32.1632746,0.00079015814 26.6529874,0.00079015814 C18.7088441,0.00079015814 12.2794598,1.8749465 7.36780805,5.61963761 C2.45533033,9.36597489 0,13.9842846 0,19.4753898 C0,21.2211455 0.202353314,22.8488712 0.608216247,24.3595548 C1.01440955,25.8712261 1.51608058,27.1909548 2.11455083,28.3180825 C2.71236034,29.4466917 3.54489969,30.4893712 4.61316,31.4466149 Z"></path>
  </g>
  <polygon points="36.0352433 69.1159555 47.6957498 69.1159555 47.6957498 57.4955278 36.0352433 57.4955278"></polygon>
</svg>